<?xml version="1.0" encoding="UTF-8" standalone="no"?>
<svg
   xmlns:dc="http://purl.org/dc/elements/1.1/"
   xmlns:cc="http://creativecommons.org/ns#"
   xmlns:rdf="http://www.w3.org/1999/02/22-rdf-syntax-ns#"
   xmlns:svg="http://www.w3.org/2000/svg"
   xmlns="http://www.w3.org/2000/svg"
   xmlns:sodipodi="http://sodipodi.sourceforge.net/DTD/sodipodi-0.dtd"
   xmlns:inkscape="http://www.inkscape.org/namespaces/inkscape"
   version="1.1"
   preserveAspectRatio="xMidYMid meet"
   viewBox="0 0 64 64"
   width="64"
   height="64"
   id="svg92"
   sodipodi:docname="favicon.svg"
   inkscape:version="1.0 (4035a4fb49, 2020-05-01)">
  <metadata
     id="metadata96">
    <rdf:RDF>
      <cc:Work
         rdf:about="">
        <dc:format>image/svg+xml</dc:format>
        <dc:type
           rdf:resource="http://purl.org/dc/dcmitype/StillImage" />
        <dc:title></dc:title>
      </cc:Work>
    </rdf:RDF>
  </metadata>
  <sodipodi:namedview
     inkscape:document-rotation="0"
     pagecolor="#ffffff"
     bordercolor="#666666"
     borderopacity="1"
     objecttolerance="10"
     gridtolerance="10"
     guidetolerance="10"
     inkscape:pageopacity="0"
     inkscape:pageshadow="2"
     inkscape:window-width="1858"
     inkscape:window-height="1057"
     id="namedview94"
     showgrid="true"
     showguides="true"
     inkscape:zoom="13.296875"
     inkscape:cx="16.674185"
     inkscape:cy="30.914416"
     inkscape:window-x="-8"
     inkscape:window-y="-8"
     inkscape:window-maximized="1"
     inkscape:current-layer="svg92">
    <inkscape:grid
       type="xygrid"
       id="grid123" />
  </sodipodi:namedview>
  <defs
     id="defs60">
    <path
       d=""
       id="e5T6qMu0A" />
    <path
       d="M43.88 15.36C44.54 15.36 45.07 15.89 45.07 16.55C45.07 23.57 45.07 43.45 45.07 50.47C45.07 51.13 44.54 51.66 43.88 51.66C43.11 51.66 41.99 51.66 41.22 51.66C40.56 51.66 40.03 51.13 40.03 50.47C40.03 43.45 40.03 23.57 40.03 16.55C40.03 15.89 40.56 15.36 41.22 15.36C41.99 15.36 43.11 15.36 43.88 15.36Z"
       id="j2X7SBqSf" />
    <path
       d="M55.35 34.31C55.67 34.31 55.92 34.56 55.92 34.87C55.92 38.22 55.92 47.7 55.92 51.04C55.92 51.36 55.67 51.61 55.35 51.61C54.46 51.61 52.34 51.61 51.45 51.61C51.14 51.61 50.88 51.36 50.88 51.04C50.88 47.7 50.88 38.22 50.88 34.87C50.88 34.56 51.14 34.31 51.45 34.31C52.34 34.31 54.46 34.31 55.35 34.31Z"
       id="b168uRnh64" />
    <path
       d="M55.13 14.11C55.38 14.11 55.58 14.31 55.58 14.56C55.58 17.22 55.58 24.75 55.58 27.41C55.58 27.66 55.38 27.86 55.13 27.86C54.21 27.86 51.91 27.86 50.99 27.86C50.74 27.86 50.54 27.66 50.54 27.41C50.54 24.75 50.54 17.22 50.54 14.56C50.54 14.31 50.74 14.11 50.99 14.11C51.91 14.11 54.21 14.11 55.13 14.11Z"
       id="c29aVjdIpq" />
    <path
       d="M23.33 14.15C24 13.98 24.68 14.38 24.85 15.05C26.67 22.23 31.84 42.53 33.66 49.7C33.83 50.37 33.42 51.05 32.76 51.22C32.02 51.41 31.03 51.66 30.3 51.85C29.63 52.02 28.95 51.62 28.78 50.95C26.95 43.77 21.79 23.47 19.96 16.3C19.79 15.63 20.2 14.95 20.87 14.78C21.6 14.59 22.59 14.34 23.33 14.15Z"
       id="bfmqhaBOH" />
    <path
       d="M9.48 14.15C10.15 13.98 10.83 14.38 11 15.05C12.83 22.23 17.99 42.53 19.81 49.7C19.98 50.37 19.58 51.05 18.91 51.22C18.18 51.41 17.18 51.66 16.45 51.85C15.78 52.02 15.1 51.62 14.93 50.95C13.11 43.77 7.94 23.47 6.12 16.3C5.95 15.63 6.35 14.95 7.02 14.78C7.76 14.59 8.75 14.34 9.48 14.15Z"
       id="bwadyXLOI" />
  </defs>
  <rect
     ry="10"
     y="4"
     x="1.7763568e-15"
     height="57"
     width="64"
     id="rect42"
     style="opacity:1;fill:#ffffff;stroke-width:1.1956" />
  <rect
     style="fill:#000000;fill-rule:evenodd;stroke-width:1.1032"
     id="rect98"
     width="5.9283681"
     height="39.185871"
     x="1.3189219"
     y="15.782561"
     ry="1.6008524"
     rx="0"
     transform="matrix(0.97949138,-0.20148607,0.28928133,0.95724412,0,0)" />
  <rect
     ry="1.579319"
     y="34"
     x="51"
     height="18"
     width="5.8272619"
     id="rect98-4"
     style="fill:#000000;fill-rule:evenodd;stroke-width:1.07956" />
  <rect
     transform="matrix(0.97709643,-0.21279701,0.2744768,0.96159372,0,0)"
     rx="0"
     ry="1.5936111"
     y="18.600496"
     x="15.047587"
     height="39.008621"
     width="5.6132531"
     id="rect98-8"
     style="fill:#000000;fill-rule:evenodd;stroke-width:1.07105" />
  <rect
     style="fill:#000000;fill-rule:evenodd;stroke-width:1.07956"
     id="rect98-4-6"
     width="5.8272619"
     height="14"
     x="51"
     y="14"
     ry="1.579319" />
  <rect
     ry="1.579319"
     y="14"
     x="40"
     height="38"
     width="5.9024677"
     id="rect98-4-6-5"
     style="fill:#000000;fill-rule:evenodd;stroke-width:1.08651" />
</svg>
